<svg xmlns="http://www.w3.org/2000/svg" width="69.999" height="70" viewBox="0 0 69.999 70">
  <defs>
    <style>
      .cls-1 {
        fill: #f1502f;
      }
    </style>
  </defs>
  <path id="Path_16" data-name="Path 16" class="cls-1" d="M68.675,31.879,38.112,1.319a4.519,4.519,0,0,0-6.382,0L25.4,7.662l8.05,8.05a5.361,5.361,0,0,1,6.787,6.828L47.988,30.3a5.359,5.359,0,1,1-3.22,3.042l-7.26-7.222V45.15a5.368,5.368,0,1,1-6.186,1.021,5.494,5.494,0,0,1,1.765-1.184V25.769a5.369,5.369,0,0,1-2.9-7.029l-7.91-7.948L1.312,31.736a4.538,4.538,0,0,0,0,6.385L31.879,68.679a4.506,4.506,0,0,0,6.376,0L68.675,38.258a4.5,4.5,0,0,0,0-6.379" transform="translate(0 0)"/>
</svg>
