<svg xmlns="http://www.w3.org/2000/svg" width="70" height="70" viewBox="0 0 70 70">
  <path id="Path_13" data-name="Path 13" d="M0,0H70V70H0ZM64.266,53.3c-.51-3.194-2.59-5.877-8.759-8.38-2.147-1.006-4.533-1.706-5.241-3.325a3.444,3.444,0,0,1-.134-2.056c.437-1.884,2.669-2.45,4.419-1.925A4.745,4.745,0,0,1,57.4,40.244c3.016-1.972,3.016-1.972,5.119-3.281a12.038,12.038,0,0,0-1.709-2.275c-1.838-2.056-4.285-3.106-8.266-3.016l-2.056.26A9.4,9.4,0,0,0,45.5,34.863c-3.325,3.765-2.365,10.328,1.66,13.04,3.981,2.975,9.8,3.628,10.547,6.431.7,3.412-2.538,4.506-5.734,4.113-2.365-.525-3.675-1.709-5.119-3.9l-5.338,3.065a11.8,11.8,0,0,0,2.362,3.235c5.075,5.122,17.763,4.859,20.04-2.928a9.872,9.872,0,0,0,.216-4.812l.134.2Zm-26.2-21.131H31.509c0,5.652-.026,11.27-.026,16.931,0,3.593.184,6.892-.4,7.907-.963,2.01-3.442,1.753-4.568,1.4a5.628,5.628,0,0,1-2.421-2.494,2.5,2.5,0,0,0-.37-.572L18.4,58.628a10.316,10.316,0,0,0,3.862,4.425,12.836,12.836,0,0,0,9.354,1.181A8.192,8.192,0,0,0,36.9,60.118c1.488-2.712,1.173-6.037,1.158-9.759.035-5.991,0-11.985,0-18.022l.012-.163Z" fill="#f0db4f"/>
</svg>
