<svg xmlns="http://www.w3.org/2000/svg" width="73.815" height="70" viewBox="0 0 73.815 70">
  <defs>
    <style>
      .cls-1 {
        fill: #764abc;
      }
    </style>
  </defs>
  <path id="Path_20" data-name="Path 20" class="cls-1" d="M51.159,49.472a5.121,5.121,0,0,0,4.613-5.395,5.316,5.316,0,0,0-5.256-5.069h-.188A5.259,5.259,0,0,0,45.26,44.45,5.615,5.615,0,0,0,46.78,48c-3.223,6.268-8.061,10.875-15.393,14.747A25.258,25.258,0,0,1,16.181,65.6C11.942,65,8.627,63.113,6.6,60.071a13.743,13.743,0,0,1-.784-14.56A21.67,21.67,0,0,1,12.268,38a30.633,30.633,0,0,1-1.292-4.746C-2.67,43.026-1.279,56.386,2.866,62.7c3.088,4.607,9.4,7.554,16.313,7.554a23.9,23.9,0,0,0,5.668-.6,36.054,36.054,0,0,0,26.269-20.09ZM67.607,37.951c-7.135-8.39-17.648-13-29.63-13H36.409A4.96,4.96,0,0,0,31.8,22.189h-.138A5.157,5.157,0,0,0,26.6,27.58a5.31,5.31,0,0,0,5.253,5.069h.228a5.2,5.2,0,0,0,4.61-3.226H38.4A35.687,35.687,0,0,1,58.35,35.549a25.306,25.306,0,0,1,9.956,11.986A12.724,12.724,0,0,1,68.167,58.6a13.705,13.705,0,0,1-12.905,7.741,24.055,24.055,0,0,1-9.125-1.981c-1.107.917-2.953,2.439-4.287,3.362a29.588,29.588,0,0,0,12.118,2.9c8.987,0,15.667-5.065,18.2-9.953,2.762-5.53,2.534-14.837-4.521-22.808ZM19.96,51.127A5.306,5.306,0,0,0,25.214,56.2H25.4a5.253,5.253,0,0,0-.138-10.5h-.185a2,2,0,0,0-.7.089,34.428,34.428,0,0,1-4.835-20.828,25.056,25.056,0,0,1,5.527-14.563C27.84,6.934,33.047,5.224,36.6,5.138c9.953-.188,14.1,12.213,14.421,17.143l4.607,1.384C54.564,8.546,45.168.62,36.181.62,27.742.62,19.96,6.75,16.823,15.736c-4.284,11.979-1.473,23.5,3.783,32.721A4.059,4.059,0,0,0,19.96,51.127Z" transform="translate(0 -0.62)"/>
</svg>
