<svg xmlns="http://www.w3.org/2000/svg" width="78.597" height="70" viewBox="0 0 78.597 70">
  <defs>
    <style>
      .cls-1 {
        fill: #61dbfb;
      }
    </style>
  </defs>
  <path id="Path_22" data-name="Path 22" class="cls-1" d="M46.6,36.322A7.321,7.321,0,1,1,39.279,29,7.323,7.323,0,0,1,46.6,36.322ZM55.273,1.314C50.865,1.314,45.1,4.458,39.266,9.9c-5.829-5.413-11.6-8.521-16-8.521a7.2,7.2,0,0,0-3.622.91c-4.5,2.6-5.512,10.689-3.186,20.844C6.484,26.213,0,31.135,0,36.322c0,5.207,6.517,10.142,16.515,13.2-2.306,10.195-1.277,18.3,3.236,20.894a7.032,7.032,0,0,0,3.609.9c4.4,0,10.175-3.144,16.008-8.593,5.829,5.417,11.6,8.524,16,8.524a7.189,7.189,0,0,0,3.622-.9c4.5-2.594,5.512-10.686,3.186-20.844C72.112,46.448,78.6,41.516,78.6,36.322S72.08,26.18,62.082,23.118c2.306-10.185,1.277-18.3-3.236-20.894a7.1,7.1,0,0,0-3.576-.91Zm-.016,3.57V4.9a3.723,3.723,0,0,1,1.827.416c2.181,1.251,3.127,6.009,2.391,12.13-.177,1.506-.465,3.095-.819,4.716a76.881,76.881,0,0,0-10.175-1.749A78.242,78.242,0,0,0,41.817,12.4C47.03,7.556,51.926,4.9,55.26,4.887Zm-32,.065c3.314,0,8.233,2.646,13.46,7.467a75.3,75.3,0,0,0-6.615,8,74.438,74.438,0,0,0-10.195,1.762c-.367-1.6-.639-3.157-.832-4.65-.753-6.117.177-10.873,2.338-12.14a4.8,4.8,0,0,1,1.844-.432Zm15.988,9.988A65.11,65.11,0,0,1,43.7,20.059c-1.441-.065-2.915-.111-4.4-.111-1.506,0-3,.033-4.454.111a62.216,62.216,0,0,1,4.4-5.125Zm.049,8.6c2.423,0,4.837.111,7.211.3Q48.5,26.7,50.384,29.933q1.827,3.144,3.334,6.373C52.709,38.451,51.6,40.6,50.4,42.692c-1.244,2.161-2.531,4.218-3.864,6.124-2.384.206-4.8.321-7.237.321s-4.837-.115-7.211-.3c-1.33-1.906-2.626-3.943-3.874-6.091q-1.827-3.144-3.334-6.373c.992-2.152,2.116-4.3,3.317-6.4,1.244-2.161,2.531-4.211,3.864-6.117,2.384-.21,4.8-.321,7.237-.321Zm-11.9.832c-.786,1.235-1.572,2.5-2.306,3.8-.737,1.277-1.425,2.561-2.08,3.845-.868-2.148-1.6-4.29-2.214-6.376,2.1-.491,4.306-.927,6.6-1.264Zm23.775,0c2.276.337,4.47.753,6.569,1.267-.589,2.07-1.326,4.2-2.161,6.33-.655-1.277-1.343-2.564-2.1-3.845-.737-1.284-1.523-2.535-2.309-3.753ZM61.2,26.579c1.585.491,3.091,1.038,4.5,1.631,5.672,2.423,9.34,5.593,9.34,8.109-.016,2.515-3.684,5.7-9.356,8.105-1.375.589-2.882,1.12-4.437,1.615a78.488,78.488,0,0,0-3.6-9.759A76.249,76.249,0,0,0,61.2,26.573Zm-43.867.013a76.4,76.4,0,0,0,3.6,9.759,75.786,75.786,0,0,0-3.556,9.707,46.49,46.49,0,0,1-4.487-1.637c-5.672-2.414-9.34-5.587-9.34-8.1s3.668-5.7,9.34-8.109C14.269,27.621,15.775,27.09,17.334,26.593ZM55.578,40.609c.868,2.152,1.6,4.3,2.214,6.379-2.1.514-4.31.95-6.6,1.277.786-1.228,1.572-2.5,2.309-3.792.737-1.277,1.425-2.581,2.083-3.864Zm-32.568.066c.655,1.284,1.343,2.564,2.1,3.848s1.523,2.528,2.309,3.743c-2.276-.334-4.47-.753-6.569-1.264.589-2.063,1.33-4.2,2.161-6.33Zm35.676,9.782a45.241,45.241,0,0,1,.832,4.66c.753,6.117-.177,10.873-2.338,12.143a3.511,3.511,0,0,1-1.844.419c-3.314,0-8.233-2.643-13.46-7.467a75.534,75.534,0,0,0,6.615-7.991,74.917,74.917,0,0,0,10.195-1.768Zm-38.742.033a77.992,77.992,0,0,0,10.175,1.742,77.837,77.837,0,0,0,6.664,8.01c-5.223,4.857-10.126,7.516-13.46,7.516a3.88,3.88,0,0,1-1.811-.432c-2.181-1.244-3.127-6.006-2.391-12.127.177-1.506.465-3.091.819-4.709Zm14.933,2.1c1.441.065,2.915.111,4.4.111,1.506,0,3-.033,4.454-.111a62.762,62.762,0,0,1-4.4,5.125A66.389,66.389,0,0,1,34.877,52.585Z" transform="translate(0 -1.314)"/>
</svg>
