<svg xmlns="http://www.w3.org/2000/svg" width="70" height="70" viewBox="0 0 70 70">
  <defs>
    <style>
      .cls-1 {
        fill: #c69;
      }
    </style>
  </defs>
  <path id="Path_10" data-name="Path 10" class="cls-1" d="M35,0A35,35,0,1,1,0,35,35,35,0,0,1,35,0ZM28.044,46.661a8.945,8.945,0,0,1-.07,5.227l-.19.525c-.07.178-.152.35-.227.513a9.812,9.812,0,0,1-1.619,2.362c-2.036,2.214-4.877,3.054-6.1,2.348-1.313-.764-.659-3.894,1.7-6.388a23.812,23.812,0,0,1,6.183-4.4v-.009ZM56.951,14.983C55.37,8.762,45.06,6.717,35.3,10.185c-5.8,2.062-12.087,5.3-16.6,9.529-5.375,5.02-6.23,9.395-5.877,11.223C14.067,37.386,22.9,41.6,26.539,44.733v.017c-1.07.525-8.913,4.46-10.751,8.531-1.969,4.287.306,7.353,1.794,7.744,4.594,1.272,9.319-1.05,11.856-4.81a12.1,12.1,0,0,0,1.178-10.722,13.609,13.609,0,0,1,5.338-.3c6.128.7,7.353,4.55,7.088,6.125a4.206,4.206,0,0,1-1.966,2.753c-.437.265-.569.35-.528.528.044.263.265.263.613.219a4.853,4.853,0,0,0,3.328-4.29c.131-3.763-3.459-7.96-9.844-7.875a15.775,15.775,0,0,0-5.469.747,1.057,1.057,0,0,0-.306-.306c-3.938-4.244-11.244-7.219-10.938-12.862.087-2.056.831-7.478,14-14.041,10.806-5.384,19.428-3.894,20.915-.612,2.138,4.678-4.6,13.388-15.84,14.653-4.288.481-6.519-1.178-7.09-1.794-.61-.656-.7-.7-.916-.566-.35.175-.131.744,0,1.094a6.735,6.735,0,0,0,4.072,3.194c2.053.656,7.088,1.047,13.125-1.312,6.778-2.622,12.072-9.931,10.541-16.056l.213.2Z"/>
</svg>
