<svg xmlns="http://www.w3.org/2000/svg" width="70" height="70" viewBox="0 0 70 70">
  <defs>
    <style>
      .cls-1 {
        fill: #fff;
      }
    </style>
  </defs>
  <path id="Path_6" data-name="Path 6" class="cls-1" d="M33.753,0c-.514,0-.9,0-1.045.02s-.63.061-1.06.1a35.085,35.085,0,0,0-25.153,14.5A34.636,34.636,0,0,0,.315,29.91,26.772,26.772,0,0,0,0,35.007a26.831,26.831,0,0,0,.315,5.1A35.139,35.139,0,0,0,24.257,68.38a36.984,36.984,0,0,0,7.39,1.533,64.279,64.279,0,0,0,6.705,0,35.341,35.341,0,0,0,12.611-3.688c.6-.308.719-.39.637-.459-.055-.041-2.621-3.482-5.7-7.642l-5.6-7.56L33.289,40.186c-3.859-5.706-7.034-10.372-7.062-10.372s-.055,4.6-.069,10.235c-.02,9.859-.027,10.256-.151,10.488a1.244,1.244,0,0,1-.6.622c-.219.109-.411.13-1.444.13H22.779l-.314-.2a1.278,1.278,0,0,1-.458-.5l-.144-.308.015-13.717.02-13.724.212-.267a1.882,1.882,0,0,1,.506-.417c.281-.137.39-.151,1.574-.151,1.4,0,1.629.055,1.991.451.1.11,3.9,5.83,8.444,12.719q6.9,10.461,13.805,20.914l5.545,8.4.28-.185a35.923,35.923,0,0,0,7.192-6.308A34.836,34.836,0,0,0,69.685,40.1a26.811,26.811,0,0,0,.314-5.1,26.885,26.885,0,0,0-.314-5.1A35.141,35.141,0,0,0,45.743,1.634,36.74,36.74,0,0,0,38.456.108C37.963.057,35.3,0,33.753,0ZM45.619,21.05c1.013,0,1.191.015,1.417.137a1.381,1.381,0,0,1,.691.807c.054.178.068,3.982.054,12.555l-.02,12.3-2.169-3.325L43.417,40.2V31.257c0-5.781.027-9.031.068-9.188a1.394,1.394,0,0,1,.678-.862c.28-.144.383-.158,1.457-.158Z" transform="translate(0)"/>
</svg>
