<svg xmlns="http://www.w3.org/2000/svg" width="58" height="57.697" viewBox="0 0 58 57.697">
  <defs>
    <style>
      .cls-1 {
        fill: #0078d7;
      }
    </style>
  </defs>
  <path id="Path_14" data-name="Path 14" class="cls-1" d="M55.946,6.164,44.007.42a3.61,3.61,0,0,0-4.12.7L17.026,21.976,7.069,14.417a2.414,2.414,0,0,0-3.084.138l-3.195,2.9a2.417,2.417,0,0,0,0,3.574l8.635,7.878L.788,36.79a2.417,2.417,0,0,0,0,3.574l3.2,2.9a2.414,2.414,0,0,0,3.084.138l9.957-7.559L39.889,56.7a3.606,3.606,0,0,0,4.118.7L55.95,51.657A3.625,3.625,0,0,0,58,48.39V9.431a3.625,3.625,0,0,0-2.054-3.267ZM43.51,42.077,26.163,28.912,43.51,15.746Z" transform="translate(0 -0.062)"/>
</svg>
